<svg xmlns="http://www.w3.org/2000/svg" viewBox="0 0 410.89 88.77"><defs><style>.cls-1{fill:#fff;}</style></defs><g id="Layer_2" data-name="Layer 2"><g id="Layer_1-2" data-name="Layer 1"><path class="cls-1" d="M74.41,83.32h7.43V81.38q0-24.34,0-48.69c0-2.14,0-2.15,2.18-2.15H95.68c2.5,0,2.5,0,2.5,2.44V83.27c.57,0,1,.11,1.43.11h5.22c4.33,0,4.47.14,3.88,4.44,0,.33-.52.7-.88.86a3.14,3.14,0,0,1-1.19,0H2.09C0,88.73,0,88.73,0,86.63c0-3.24,0-3.24,3.18-3.24l6.87,0a1.82,1.82,0,0,0,.41-.16c0-.56.1-1.19.1-1.82,0-7.67,0-15.33,0-23,0-2,.08-2.07,2.12-2.08H24.94c1.85,0,2,.12,2,1.93q0,11.58,0,23.15v1.9h7.43V29.31c0-2.16,0-2.17,2.13-2.17,4.08,0,8.16.06,12.24,0,1.54,0,1.94.47,1.94,2q-.06,26.15,0,52.28v2h7.53V48.64c0-2.19,0-2.2,2.12-2.2h12.1c2,0,2,.05,2,2.12V83.32Z"/><path class="cls-1" d="M72,24.18c3.31-2.65,6.63-5.26,9.87-8a1.84,1.84,0,0,0,.23-1.54A9,9,0,0,1,89.29,3.52a8.86,8.86,0,0,1,9.4,4.57,9,9,0,0,1-1.46,10.49,8.79,8.79,0,0,1-10.3,1.76,2,2,0,0,0-2.61.25c-2.78,2.33-5.63,4.59-8.5,6.81A1.83,1.83,0,0,0,75,29.49,9,9,0,0,1,67.29,40c-6.06.76-11.37-5.14-9.68-11.06a2.3,2.3,0,0,0-.77-2.69c-3.05-2.87-6-5.79-9-8.72a1.35,1.35,0,0,0-1.8-.35,8.81,8.81,0,0,1-6,.45,1.71,1.71,0,0,0-1.46.48q-6,7.56-11.76,15.25A2,2,0,0,0,26.76,35a9,9,0,0,1-4.84,12.33,8.86,8.86,0,0,1-11.79-6,8.45,8.45,0,0,1,2.23-8.66A8.7,8.7,0,0,1,21,30.36c.48.11.95.27,1.53.45q2.1-2.7,4.19-5.41c2.58-3.35,5.14-6.72,7.76-10a1.57,1.57,0,0,0,.22-2.07A8.93,8.93,0,1,1,50.87,12a1.72,1.72,0,0,0,.49,2.18c3.23,3,6.39,6.13,9.59,9.21a2.1,2.1,0,0,0,.33.18A9.12,9.12,0,0,1,72,24.18Zm18.75-6.91a5,5,0,0,0,5-4.89,5,5,0,1,0-9.92,0A5,5,0,0,0,90.79,17.27ZM47.41,9a4.82,4.82,0,0,0-4.84-5,5.05,5.05,0,0,0-5.09,5,5.25,5.25,0,0,0,5,5A5,5,0,0,0,47.41,9Zm19,17.15a4.81,4.81,0,0,0-5,4.77,5,5,0,0,0,4.87,5.15,5.21,5.21,0,0,0,5.06-4.91A5.06,5.06,0,0,0,66.37,26.15ZM18.8,43.89A4.93,4.93,0,0,0,23.72,39a5,5,0,0,0-5-4.9,4.83,4.83,0,0,0-4.9,5A4.7,4.7,0,0,0,18.8,43.89Z"/><path class="cls-1" d="M147.67,35.66c3.07,0,5.8.11,8.14,2.39a10.77,10.77,0,0,1,3,7.76,8.3,8.3,0,0,1-3.29,7,9.36,9.36,0,0,1-1.28.83,14.31,14.31,0,0,1,3.18,1.79,8.65,8.65,0,0,1,3.29,7.3,12.05,12.05,0,0,1-4.57,9.71C153,74.86,149.57,75,145.83,75H133.11V35.66Zm-4.8,15.17h3.24a7.2,7.2,0,0,0,1.5-.23,3.33,3.33,0,0,0,2.12-3.34A3.14,3.14,0,0,0,147.5,44a6.48,6.48,0,0,0-1.5-.17h-3.13Zm0,15.67h3.07a9.58,9.58,0,0,0,2.18-.23,3.92,3.92,0,0,0,2.78-4,4.38,4.38,0,0,0-.55-2.17c-.95-1.62-2.62-1.79-4.24-1.84h-3.24Z"/><path class="cls-1" d="M174.72,44.86V61.92a7.27,7.27,0,0,0,.22,2.29,4.1,4.1,0,0,0,4.18,3.35,5,5,0,0,0,3.91-2,7.19,7.19,0,0,0,1.06-4.4V44.86h9.09V75h-9l-.06-2.73a9,9,0,0,1-7.3,3.23,10.82,10.82,0,0,1-3.29-.45,10.69,10.69,0,0,1-7.2-7.41,21.48,21.48,0,0,1-.67-6.64V44.86Z"/><path class="cls-1" d="M219.11,56a6.82,6.82,0,0,0-.84-1.06,6.4,6.4,0,0,0-4.57-1.78,6.67,6.67,0,0,0-2.79.61,6.46,6.46,0,0,0-4,6,6.75,6.75,0,0,0,6.86,6.86,6.41,6.41,0,0,0,5.58-3.12h9.59A21,21,0,0,1,227,68.22a15.81,15.81,0,0,1-13.44,7.37,15.54,15.54,0,0,1-6.19-1.29,15.9,15.9,0,0,1-9.49-14.44,16.72,16.72,0,0,1,1-5.41A15.81,15.81,0,0,1,213.7,44.19,15.56,15.56,0,0,1,227,51.55a14.85,14.85,0,0,1,1.9,4.46Z"/><path class="cls-1" d="M240.91,35.66V47.48a12.1,12.1,0,0,1,1.4-1.28,10,10,0,0,1,6.13-2,10.21,10.21,0,0,1,9.15,5.25c1.78,3.18,1.72,6.52,1.72,10.09V75h-9V57.41c-.06-.67.11-2.9-1.73-4.3a4.24,4.24,0,0,0-2.68-.89,4.93,4.93,0,0,0-4.62,3.18,8.18,8.18,0,0,0-.34,2.28V75h-9V35.66Z"/><path class="cls-1" d="M274.59,35.66v6.86H265.5V35.66Zm0,9.25V75H265.5V44.91Z"/><path class="cls-1" d="M295.17,35.66c3.07,0,5.8.11,8.14,2.39a10.73,10.73,0,0,1,3,7.76,8.33,8.33,0,0,1-3.29,7,9.47,9.47,0,0,1-1.29.83,14.07,14.07,0,0,1,3.18,1.79,8.65,8.65,0,0,1,3.29,7.3,12,12,0,0,1-4.57,9.71c-3.12,2.45-6.58,2.56-10.32,2.62H280.62V35.66Zm-4.79,15.17h3.23a7.36,7.36,0,0,0,1.51-.23,3.33,3.33,0,0,0,2.12-3.34A3.14,3.14,0,0,0,295,44a6.4,6.4,0,0,0-1.5-.17h-3.12Zm0,15.67h3.06a9.58,9.58,0,0,0,2.18-.23,3.93,3.93,0,0,0,2.79-4,4.42,4.42,0,0,0-.56-2.17c-1-1.62-2.62-1.79-4.24-1.84h-3.23Z"/><path class="cls-1" d="M333.87,44.91H343V75h-8.75v-2.4A12.82,12.82,0,0,1,317,72a16.19,16.19,0,0,1-5.3-12A16.85,16.85,0,0,1,315,50.1a14.38,14.38,0,0,1,11.38-5.8,12.39,12.39,0,0,1,7.47,2.45Zm-6.3,21.92a6.83,6.83,0,1,0-6.86-6.8,6.62,6.62,0,0,0,2.07,4.79A6.91,6.91,0,0,0,327.57,66.83Z"/><path class="cls-1" d="M376.76,75h-9V58.13c-.05-1.78-.11-3.68-1.67-4.91a4.26,4.26,0,0,0-2.73-.83,4.89,4.89,0,0,0-4.74,3.12,8.19,8.19,0,0,0-.34,2.73V75h-9V44.8h9.09v2.73a9.16,9.16,0,0,1,7.41-3.17,11.56,11.56,0,0,1,3.74.61,10.48,10.48,0,0,1,6.64,7.19,22.14,22.14,0,0,1,.61,6.36Z"/><path class="cls-1" d="M391.7,58.52l8.54-13.61h10.65l-10,14.73L410.72,75H399.51l-7.75-12.94V75h-9V35.66h9Z"/></g></g></svg>